<?xml version="1.0" encoding="UTF-8"?>
<svg width="32" height="32" viewBox="0 0 32 32" xmlns="http://www.w3.org/2000/svg">
  <rect width="32" height="32" rx="16" fill="#FF0000"/>
  <path fill="#FFFFFF" d="M16,8c-1.45,0-2.63,1.18-2.63,2.64c0,0.87,0.42,1.64,1.07,2.12c-0.64,0.8-1.66,1.34-1.66,1.34s1.25-0.06,1.93-0.19c-0.47,0.77-1.52,1.64-1.52,1.64
  s1.21-0.23,2.03-0.86c-0.62,2-2.16,2.54-2.16,2.54s1.47,0.32,2.69-0.58c-0.51,1.32-2.12,2.2-2.12,2.2s1.34-0.08,2.93-1.19c0.44,1.85-1.02,3.77-1.02,3.77
  s2.32-0.96,2.97-3.82c0.25,0.53,1.76,1.15,1.76,1.15s-0.98-1.36-1.15-1.99c0.87,0.68,2.51,1.03,2.51,1.03s-2-1.63-2.24-2.45c0.86,0.34,2.45,0.42,2.45,0.42
  s-1.8-1.25-2.12-1.9c1.46,0.34,3.58-0.03,3.58-0.03s-3.74-0.64-4.04-1.52c1.21,0.02,2.14-0.39,2.14-0.39s-1.53-0.36-2.07-0.83c0.65-0.48,1.07-1.25,1.07-2.12
  C18.63,9.18,17.45,8,16,8z"/>
</svg>