<?xml version="1.0" encoding="UTF-8"?>
<svg width="400" height="800" viewBox="0 0 400 800" xmlns="http://www.w3.org/2000/svg">
  <rect width="400" height="800" rx="40" fill="#333"/>
  <rect width="380" height="780" rx="35" x="10" y="10" fill="#222"/>
  <rect width="360" height="700" rx="5" x="20" y="50" fill="#f5f5f5"/>
  <circle cx="200" cy="780" r="30" fill="#444"/>
  <rect width="120" height="20" rx="10" x="140" y="20" fill="#444"/>
  
  <!-- Screen Content: CanScan app UI mockup -->
  <rect width="360" height="80" x="20" y="50" fill="#FF0000"/>
  <text x="40" y="100" font-family="Arial" font-size="24" font-weight="bold" fill="white">CanScan</text>
  
  <rect width="320" height="50" rx="25" x="40" y="150" fill="#eee" stroke="#ddd"/>
  <text x="100" y="183" font-family="Arial" font-size="18" fill="#555">Search Products</text>
  <circle cx="70" cy="175" r="15" fill="none" stroke="#555" stroke-width="2"/>
  <line x1="80" y1="185" x2="85" y2="190" stroke="#555" stroke-width="2"/>
  
  <rect width="150" height="150" x="40" y="220" rx="10" fill="#eee"/>
  <text x="70" y="300" font-family="Arial" font-size="16" fill="#555">Scan Barcode</text>
  
  <rect width="150" height="150" x="210" y="220" rx="10" fill="#eee"/>
  <text x="240" y="300" font-family="Arial" font-size="16" fill="#555">Take Photo</text>
  
  <rect width="320" height="60" x="40" y="390" rx="10" fill="#eee"/>
  <text x="160" y="430" font-family="Arial" font-size="18" fill="#FF0000" text-anchor="middle">Canadian Products</text>
  
  <rect width="100" height="100" x="40" y="470" rx="10" fill="#eee"/>
  <rect width="100" height="100" x="150" y="470" rx="10" fill="#eee"/>
  <rect width="100" height="100" x="260" y="470" rx="10" fill="#eee"/>
  
  <rect width="100" height="100" x="40" y="580" rx="10" fill="#eee"/>
  <rect width="100" height="100" x="150" y="580" rx="10" fill="#eee"/>
  <rect width="100" height="100" x="260" y="580" rx="10" fill="#eee"/>

  <!-- Nav Bar -->
  <rect width="360" height="60" x="20" y="690" fill="#f8f8f8"/>
  <circle cx="60" cy="720" r="15" fill="#FF0000"/>
  <circle cx="200" cy="720" r="15" fill="#ddd"/>
  <circle cx="340" cy="720" r="15" fill="#ddd"/>
</svg>