<?xml version="1.0" encoding="UTF-8"?>
<svg width="400" height="300" viewBox="0 0 400 300" xmlns="http://www.w3.org/2000/svg">
  <rect width="400" height="300" fill="#f5f5f5"/>
  
  <!-- Phone outline -->
  <rect width="180" height="280" rx="20" x="110" y="10" fill="#333"/>
  <rect width="160" height="260" rx="10" x="120" y="20" fill="#fff"/>
  
  <!-- Map interface -->
  <rect width="160" height="60" x="120" y="20" fill="#FF0000"/>
  <text x="200" y="55" font-family="Arial" font-size="16" fill="white" text-anchor="middle" font-weight="bold">CanScan</text>
  
  <!-- Map area -->
  <rect width="140" height="180" x="130" y="90" fill="#E8F5E9"/>
  
  <!-- Map roads -->
  <path d="M130,150 H270" stroke="#ccc" stroke-width="4"/>
  <path d="M130,120 H270" stroke="#ccc" stroke-width="3"/>
  <path d="M130,180 H270" stroke="#ccc" stroke-width="3"/>
  <path d="M200,90 V270" stroke="#ccc" stroke-width="4"/>
  <path d="M160,90 V270" stroke="#ccc" stroke-width="3"/>
  <path d="M240,90 V270" stroke="#ccc" stroke-width="3"/>
  
  <!-- Store markers -->
  <circle cx="160" cy="120" r="6" fill="#FF0000"/>
  <circle cx="240" cy="180" r="6" fill="#FF0000"/>
  <circle cx="190" cy="150" r="8" fill="#FF0000" stroke="#fff" stroke-width="2"/>
  <circle cx="210" cy="120" r="6" fill="#FF0000"/>
  
  <!-- Current location -->
  <circle cx="200" cy="200" r="8" fill="#4285F4" stroke="#fff" stroke-width="2"/>
  <circle cx="200" cy="200" r="3" fill="#fff"/>
  
  <!-- Store info card -->
  <rect width="120" height="60" rx="5" x="140" y="210" fill="white" stroke="#ddd"/>
  <text x="200" y="230" font-family="Arial" font-size="10" fill="#333" text-anchor="middle" font-weight="bold">Canadian Store</text>
  <text x="200" y="245" font-family="Arial" font-size="8" fill="#666" text-anchor="middle">0.5 km away • 4.5 ★</text>
  <rect width="80" height="16" rx="8" x="160" y="250" fill="#FF0000"/>
  <text x="200" y="262" font-family="Arial" font-size="8" fill="white" text-anchor="middle">GET DIRECTIONS</text>
  
  <!-- Maple leaf markers -->
  <g transform="translate(155,115) scale(0.07)">
    <path fill="#FF0000" d="M256,0c-23.357,0-42.297,18.932-42.297,42.288c0,13.928,6.726,26.264,17.151,33.963
    c-10.24,12.777-26.569,21.489-26.569,21.489s20.075-0.908,30.911-3.024c-7.523,12.304-24.333,26.233-24.333,26.233
    s19.339-3.75,32.499-13.716c-9.889,31.974-34.542,40.623-34.542,40.623s23.535,5.094,43.083-9.343
    c-8.156,21.051-33.971,35.223-33.971,35.223s21.479-1.26,46.815-19.057c7.068,29.653-16.304,60.369-16.304,60.369
    s37.073-15.38,47.446-61.123c4.056,8.48,28.236,18.395,28.236,18.395s-15.659-21.823-18.417-31.863
    c13.891,10.814,40.173,16.52,40.173,16.52s-31.968-26.02-35.906-39.185c13.829,5.46,39.155,6.787,39.155,6.787
    s-28.785-20.012-33.952-30.44c23.389,5.414,57.274-0.463,57.274-0.463s-59.873-10.183-64.693-24.354
    c19.293,0.312,34.218-6.318,34.218-6.318s-24.427-5.779-33.187-13.341c10.424-7.699,17.151-20.035,17.151-33.963
    C298.297,18.932,279.357,0,256,0z"/>
  </g>
  
  <g transform="translate(235,175) scale(0.07)">
    <path fill="#FF0000" d="M256,0c-23.357,0-42.297,18.932-42.297,42.288c0,13.928,6.726,26.264,17.151,33.963
    c-10.24,12.777-26.569,21.489-26.569,21.489s20.075-0.908,30.911-3.024c-7.523,12.304-24.333,26.233-24.333,26.233
    s19.339-3.75,32.499-13.716c-9.889,31.974-34.542,40.623-34.542,40.623s23.535,5.094,43.083-9.343
    c-8.156,21.051-33.971,35.223-33.971,35.223s21.479-1.26,46.815-19.057c7.068,29.653-16.304,60.369-16.304,60.369
    s37.073-15.38,47.446-61.123c4.056,8.48,28.236,18.395,28.236,18.395s-15.659-21.823-18.417-31.863
    c13.891,10.814,40.173,16.52,40.173,16.52s-31.968-26.02-35.906-39.185c13.829,5.46,39.155,6.787,39.155,6.787
    s-28.785-20.012-33.952-30.44c23.389,5.414,57.274-0.463,57.274-0.463s-59.873-10.183-64.693-24.354
    c19.293,0.312,34.218-6.318,34.218-6.318s-24.427-5.779-33.187-13.341c10.424-7.699,17.151-20.035,17.151-33.963
    C298.297,18.932,279.357,0,256,0z"/>
  </g>
  
  <g transform="translate(185,145) scale(0.09)">
    <path fill="#FF0000" d="M256,0c-23.357,0-42.297,18.932-42.297,42.288c0,13.928,6.726,26.264,17.151,33.963
    c-10.24,12.777-26.569,21.489-26.569,21.489s20.075-0.908,30.911-3.024c-7.523,12.304-24.333,26.233-24.333,26.233
    s19.339-3.75,32.499-13.716c-9.889,31.974-34.542,40.623-34.542,40.623s23.535,5.094,43.083-9.343
    c-8.156,21.051-33.971,35.223-33.971,35.223s21.479-1.26,46.815-19.057c7.068,29.653-16.304,60.369-16.304,60.369
    s37.073-15.38,47.446-61.123c4.056,8.48,28.236,18.395,28.236,18.395s-15.659-21.823-18.417-31.863
    c13.891,10.814,40.173,16.52,40.173,16.52s-31.968-26.02-35.906-39.185c13.829,5.46,39.155,6.787,39.155,6.787
    s-28.785-20.012-33.952-30.44c23.389,5.414,57.274-0.463,57.274-0.463s-59.873-10.183-64.693-24.354
    c19.293,0.312,34.218-6.318,34.218-6.318s-24.427-5.779-33.187-13.341c10.424-7.699,17.151-20.035,17.151-33.963
    C298.297,18.932,279.357,0,256,0z"/>
  </g>
  
  <g transform="translate(205,115) scale(0.07)">
    <path fill="#FF0000" d="M256,0c-23.357,0-42.297,18.932-42.297,42.288c0,13.928,6.726,26.264,17.151,33.963
    c-10.24,12.777-26.569,21.489-26.569,21.489s20.075-0.908,30.911-3.024c-7.523,12.304-24.333,26.233-24.333,26.233
    s19.339-3.75,32.499-13.716c-9.889,31.974-34.542,40.623-34.542,40.623s23.535,5.094,43.083-9.343
    c-8.156,21.051-33.971,35.223-33.971,35.223s21.479-1.26,46.815-19.057c7.068,29.653-16.304,60.369-16.304,60.369
    s37.073-15.38,47.446-61.123c4.056,8.48,28.236,18.395,28.236,18.395s-15.659-21.823-18.417-31.863
    c13.891,10.814,40.173,16.52,40.173,16.52s-31.968-26.02-35.906-39.185c13.829,5.46,39.155,6.787,39.155,6.787
    s-28.785-20.012-33.952-30.44c23.389,5.414,57.274-0.463,57.274-0.463s-59.873-10.183-64.693-24.354
    c19.293,0.312,34.218-6.318,34.218-6.318s-24.427-5.779-33.187-13.341c10.424-7.699,17.151-20.035,17.151-33.963
    C298.297,18.932,279.357,0,256,0z"/>
  </g>
</svg>