<?xml version="1.0" encoding="UTF-8"?>
<svg width="100" height="100" viewBox="0 0 100 100" xmlns="http://www.w3.org/2000/svg">
  <g fill="#FF0000" fill-opacity="0.05">
    <path d="M25,0c-2.3,0-4.2,1.9-4.2,4.2c0,1.4,0.7,2.6,1.7,3.4c-1,1.3-2.7,2.1-2.7,2.1s2,0,3.1-0.3c-0.8,1.2-2.4,2.6-2.4,2.6
    s1.9-0.4,3.2-1.4c-1,3.2-3.5,4.1-3.5,4.1s2.4,0.5,4.3-0.9c-0.8,2.1-3.4,3.5-3.4,3.5s2.1-0.1,4.7-1.9c0.7,3-1.6,6-1.6,6
    s3.7-1.5,4.7-6.1c0.4,0.8,2.8,1.8,2.8,1.8s-1.6-2.2-1.8-3.2c1.4,1.1,4,1.7,4,1.7s-3.2-2.6-3.6-3.9c1.4,0.5,3.9,0.7,3.9,0.7
    s-2.9-2-3.4-3c2.3,0.5,5.7,0,5.7,0s-6-1-6.5-2.4c1.9,0,3.4-0.6,3.4-0.6s-2.4-0.6-3.3-1.3c1-0.8,1.7-2,1.7-3.4
    C29.2,1.9,27.3,0,25,0z"/>
    <path d="M75,0c-2.3,0-4.2,1.9-4.2,4.2c0,1.4,0.7,2.6,1.7,3.4c-1,1.3-2.7,2.1-2.7,2.1s2,0,3.1-0.3c-0.8,1.2-2.4,2.6-2.4,2.6
    s1.9-0.4,3.2-1.4c-1,3.2-3.5,4.1-3.5,4.1s2.4,0.5,4.3-0.9c-0.8,2.1-3.4,3.5-3.4,3.5s2.1-0.1,4.7-1.9c0.7,3-1.6,6-1.6,6
    s3.7-1.5,4.7-6.1c0.4,0.8,2.8,1.8,2.8,1.8s-1.6-2.2-1.8-3.2c1.4,1.1,4,1.7,4,1.7s-3.2-2.6-3.6-3.9c1.4,0.5,3.9,0.7,3.9,0.7
    s-2.9-2-3.4-3c2.3,0.5,5.7,0,5.7,0s-6-1-6.5-2.4c1.9,0,3.4-0.6,3.4-0.6s-2.4-0.6-3.3-1.3c1-0.8,1.7-2,1.7-3.4
    C79.2,1.9,77.3,0,75,0z"/>
    <path d="M50,25c-2.3,0-4.2,1.9-4.2,4.2c0,1.4,0.7,2.6,1.7,3.4c-1,1.3-2.7,2.1-2.7,2.1s2,0,3.1-0.3c-0.8,1.2-2.4,2.6-2.4,2.6
    s1.9-0.4,3.2-1.4c-1,3.2-3.5,4.1-3.5,4.1s2.4,0.5,4.3-0.9c-0.8,2.1-3.4,3.5-3.4,3.5s2.1-0.1,4.7-1.9c0.7,3-1.6,6-1.6,6
    s3.7-1.5,4.7-6.1c0.4,0.8,2.8,1.8,2.8,1.8s-1.6-2.2-1.8-3.2c1.4,1.1,4,1.7,4,1.7s-3.2-2.6-3.6-3.9c1.4,0.5,3.9,0.7,3.9,0.7
    s-2.9-2-3.4-3c2.3,0.5,5.7,0,5.7,0s-6-1-6.5-2.4c1.9,0,3.4-0.6,3.4-0.6s-2.4-0.6-3.3-1.3c1-0.8,1.7-2,1.7-3.4
    C54.2,26.9,52.3,25,50,25z"/>
    <path d="M25,50c-2.3,0-4.2,1.9-4.2,4.2c0,1.4,0.7,2.6,1.7,3.4c-1,1.3-2.7,2.1-2.7,2.1s2,0,3.1-0.3c-0.8,1.2-2.4,2.6-2.4,2.6
    s1.9-0.4,3.2-1.4c-1,3.2-3.5,4.1-3.5,4.1s2.4,0.5,4.3-0.9c-0.8,2.1-3.4,3.5-3.4,3.5s2.1-0.1,4.7-1.9c0.7,3-1.6,6-1.6,6
    s3.7-1.5,4.7-6.1c0.4,0.8,2.8,1.8,2.8,1.8s-1.6-2.2-1.8-3.2c1.4,1.1,4,1.7,4,1.7s-3.2-2.6-3.6-3.9c1.4,0.5,3.9,0.7,3.9,0.7
    s-2.9-2-3.4-3c2.3,0.5,5.7,0,5.7,0s-6-1-6.5-2.4c1.9,0,3.4-0.6,3.4-0.6s-2.4-0.6-3.3-1.3c1-0.8,1.7-2,1.7-3.4
    C29.2,51.9,27.3,50,25,50z"/>
    <path d="M75,50c-2.3,0-4.2,1.9-4.2,4.2c0,1.4,0.7,2.6,1.7,3.4c-1,1.3-2.7,2.1-2.7,2.1s2,0,3.1-0.3c-0.8,1.2-2.4,2.6-2.4,2.6
    s1.9-0.4,3.2-1.4c-1,3.2-3.5,4.1-3.5,4.1s2.4,0.5,4.3-0.9c-0.8,2.1-3.4,3.5-3.4,3.5s2.1-0.1,4.7-1.9c0.7,3-1.6,6-1.6,6
    s3.7-1.5,4.7-6.1c0.4,0.8,2.8,1.8,2.8,1.8s-1.6-2.2-1.8-3.2c1.4,1.1,4,1.7,4,1.7s-3.2-2.6-3.6-3.9c1.4,0.5,3.9,0.7,3.9,0.7
    s-2.9-2-3.4-3c2.3,0.5,5.7,0,5.7,0s-6-1-6.5-2.4c1.9,0,3.4-0.6,3.4-0.6s-2.4-0.6-3.3-1.3c1-0.8,1.7-2,1.7-3.4
    C79.2,51.9,77.3,50,75,50z"/>
    <path d="M0,25c-2.3,0-4.2,1.9-4.2,4.2c0,1.4,0.7,2.6,1.7,3.4c-1,1.3-2.7,2.1-2.7,2.1s2,0,3.1-0.3c-0.8,1.2-2.4,2.6-2.4,2.6
    s1.9-0.4,3.2-1.4c-1,3.2-3.5,4.1-3.5,4.1s2.4,0.5,4.3-0.9c-0.8,2.1-3.4,3.5-3.4,3.5s2.1-0.1,4.7-1.9c0.7,3-1.6,6-1.6,6
    s3.7-1.5,4.7-6.1c0.4,0.8,2.8,1.8,2.8,1.8s-1.6-2.2-1.8-3.2c1.4,1.1,4,1.7,4,1.7s-3.2-2.6-3.6-3.9c1.4,0.5,3.9,0.7,3.9,0.7
    s-2.9-2-3.4-3c2.3,0.5,5.7,0,5.7,0s-6-1-6.5-2.4c1.9,0,3.4-0.6,3.4-0.6s-2.4-0.6-3.3-1.3c1-0.8,1.7-2,1.7-3.4
    C4.2,26.9,2.3,25,0,25z"/>
    <path d="M100,25c-2.3,0-4.2,1.9-4.2,4.2c0,1.4,0.7,2.6,1.7,3.4c-1,1.3-2.7,2.1-2.7,2.1s2,0,3.1-0.3c-0.8,1.2-2.4,2.6-2.4,2.6
    s1.9-0.4,3.2-1.4c-1,3.2-3.5,4.1-3.5,4.1s2.4,0.5,4.3-0.9c-0.8,2.1-3.4,3.5-3.4,3.5s2.1-0.1,4.7-1.9c0.7,3-1.6,6-1.6,6
    s3.7-1.5,4.7-6.1c0.4,0.8,2.8,1.8,2.8,1.8s-1.6-2.2-1.8-3.2c1.4,1.1,4,1.7,4,1.7s-3.2-2.6-3.6-3.9c1.4,0.5,3.9,0.7,3.9,0.7
    s-2.9-2-3.4-3c2.3,0.5,5.7,0,5.7,0s-6-1-6.5-2.4c1.9,0,3.4-0.6,3.4-0.6s-2.4-0.6-3.3-1.3c1-0.8,1.7-2,1.7-3.4
    C104.2,26.9,102.3,25,100,25z"/>
    <path d="M50,75c-2.3,0-4.2,1.9-4.2,4.2c0,1.4,0.7,2.6,1.7,3.4c-1,1.3-2.7,2.1-2.7,2.1s2,0,3.1-0.3c-0.8,1.2-2.4,2.6-2.4,2.6
    s1.9-0.4,3.2-1.4c-1,3.2-3.5,4.1-3.5,4.1s2.4,0.5,4.3-0.9c-0.8,2.1-3.4,3.5-3.4,3.5s2.1-0.1,4.7-1.9c0.7,3-1.6,6-1.6,6
    s3.7-1.5,4.7-6.1c0.4,0.8,2.8,1.8,2.8,1.8s-1.6-2.2-1.8-3.2c1.4,1.1,4,1.7,4,1.7s-3.2-2.6-3.6-3.9c1.4,0.5,3.9,0.7,3.9,0.7
    s-2.9-2-3.4-3c2.3,0.5,5.7,0,5.7,0s-6-1-6.5-2.4c1.9,0,3.4-0.6,3.4-0.6s-2.4-0.6-3.3-1.3c1-0.8,1.7-2,1.7-3.4
    C54.2,76.9,52.3,75,50,75z"/>
    <path d="M0,75c-2.3,0-4.2,1.9-4.2,4.2c0,1.4,0.7,2.6,1.7,3.4c-1,1.3-2.7,2.1-2.7,2.1s2,0,3.1-0.3c-0.8,1.2-2.4,2.6-2.4,2.6
    s1.9-0.4,3.2-1.4c-1,3.2-3.5,4.1-3.5,4.1s2.4,0.5,4.3-0.9c-0.8,2.1-3.4,3.5-3.4,3.5s2.1-0.1,4.7-1.9c0.7,3-1.6,6-1.6,6
    s3.7-1.5,4.7-6.1c0.4,0.8,2.8,1.8,2.8,1.8s-1.6-2.2-1.8-3.2c1.4,1.1,4,1.7,4,1.7s-3.2-2.6-3.6-3.9c1.4,0.5,3.9,0.7,3.9,0.7
    s-2.9-2-3.4-3c2.3,0.5,5.7,0,5.7,0s-6-1-6.5-2.4c1.9,0,3.4-0.6,3.4-0.6s-2.4-0.6-3.3-1.3c1-0.8,1.7-2,1.7-3.4
    C4.2,76.9,2.3,75,0,75z"/>
    <path d="M100,75c-2.3,0-4.2,1.9-4.2,4.2c0,1.4,0.7,2.6,1.7,3.4c-1,1.3-2.7,2.1-2.7,2.1s2,0,3.1-0.3c-0.8,1.2-2.4,2.6-2.4,2.6
    s1.9-0.4,3.2-1.4c-1,3.2-3.5,4.1-3.5,4.1s2.4,0.5,4.3-0.9c-0.8,2.1-3.4,3.5-3.4,3.5s2.1-0.1,4.7-1.9c0.7,3-1.6,6-1.6,6
    s3.7-1.5,4.7-6.1c0.4,0.8,2.8,1.8,2.8,1.8s-1.6-2.2-1.8-3.2c1.4,1.1,4,1.7,4,1.7s-3.2-2.6-3.6-3.9c1.4,0.5,3.9,0.7,3.9,0.7
    s-2.9-2-3.4-3c2.3,0.5,5.7,0,5.7,0s-6-1-6.5-2.4c1.9,0,3.4-0.6,3.4-0.6s-2.4-0.6-3.3-1.3c1-0.8,1.7-2,1.7-3.4
    C104.2,76.9,102.3,75,100,75z"/>
  </g>
</svg>